<?xml version="1.0" standalone="no"?>
<!DOCTYPE svg PUBLIC "-//W3C//DTD SVG 20010904//EN"
 "http://www.w3.org/TR/2001/REC-SVG-20010904/DTD/svg10.dtd">
<svg version="1.0" xmlns="http://www.w3.org/2000/svg"
 width="1360.000000pt" height="1360.000000pt" viewBox="0 0 1360.000000 1360.000000"
 preserveAspectRatio="xMidYMid meet">
<metadata>
Created by potrace 1.11, written by Peter Selinger 2001-2013
</metadata>
<g transform="translate(0.000000,1360.000000) scale(0.100000,-0.100000)"
fill="#000000" stroke="none">
<path d="M3540 13416 l0 -184 -62 -6 c-375 -36 -587 -62 -833 -104 l-100 -17
-3 -6151 -2 -6152 42 -6 c24 -3 144 -17 268 -31 124 -13 244 -27 268 -30 l42
-6 0 -245 c0 -134 1 -244 3 -244 1 0 79 -9 172 -20 537 -62 1304 -129 1790
-157 430 -24 1322 -24 1645 0 1043 78 1761 243 2405 552 413 198 687 387 965
665 647 646 939 1439 917 2485 -10 428 -62 744 -184 1105 -188 557 -557 1053
-1046 1403 -45 32 -151 129 -237 216 -85 87 -202 195 -260 241 -106 84 -323
230 -421 284 -63 33 -74 19 104 131 194 122 303 210 467 374 165 166 259 288
389 504 211 351 325 675 388 1107 26 177 25 702 0 905 -41 318 -112 590 -221
844 -182 422 -508 812 -924 1105 -43 31 -127 108 -191 176 -173 185 -370 348
-556 462 -371 226 -805 395 -1253 488 -339 71 -769 134 -1082 160 -134 11
-561 30 -672 30 l-68 0 0 150 0 150 -875 0 -875 0 0 -184z m1590 -1211 c0
-679 -2 -1235 -5 -1235 -2 0 -159 119 -349 265 -190 146 -350 265 -355 265 -6
0 -165 -114 -353 -253 -189 -139 -349 -257 -355 -261 -10 -6 -13 242 -13 1223
l0 1231 715 0 715 0 0 -1235z m1383 -856 c378 -33 743 -125 1026 -259 102 -49
109 -54 139 -106 79 -138 143 -310 180 -484 38 -178 47 -278 46 -525 -1 -268
-19 -428 -74 -637 -209 -798 -870 -1259 -1935 -1348 -66 -5 -319 -10 -562 -10
l-443 0 0 1480 c0 814 2 1480 5 1480 3 0 90 -65 194 -145 104 -80 192 -145
195 -145 3 0 6 155 6 344 l0 345 53 6 c188 23 927 26 1170 4z m22 -5379 c345
-14 676 -52 965 -111 209 -43 436 -122 626 -217 90 -45 104 -56 138 -107 58
-88 140 -248 185 -361 183 -462 198 -1176 35 -1679 -107 -329 -359 -665 -662
-882 -159 -113 -430 -245 -662 -321 -284 -93 -728 -166 -1175 -193 -211 -12
-1061 -9 -1082 4 -10 7 -13 405 -13 1936 0 1060 3 1931 7 1934 10 11 1358 8
1638 -3z"/>
</g>
</svg>
