<?xml version="1.0" encoding="utf-8"?>
<!-- Generator: Adobe Illustrator 24.0.3, SVG Export Plug-In . SVG Version: 6.00 Build 0)  -->
<svg version="1.1" id="Capa_1" xmlns="http://www.w3.org/2000/svg" xmlns:xlink="http://www.w3.org/1999/xlink" x="0px" y="0px"
	 viewBox="0 0 512 512" style="enable-background:new 0 0 512 512;" xml:space="preserve">
<style type="text/css">
	.st0{fill:#744210;}
</style>
<g>
	<g>
		<path class="st0" d="M313.6,374.9c-22.1-48.9-92.8-50.2-115.6,0c-1.7,3.8,0,8.2,3.7,9.9c3.8,1.7,8.2,0,9.9-3.7
			c17.3-38.1,71.2-37.6,88.2,0c1.7,3.8,6.2,5.5,9.9,3.7C313.6,383.1,315.3,378.6,313.6,374.9z"/>
	</g>
</g>
<g>
	<g>
		<path class="st0" d="M326.4,229.5c-16.1,0-29.2,13.1-29.2,29.2s13.1,29.2,29.2,29.2s29.2-13.1,29.2-29.2S342.5,229.5,326.4,229.5z
			 M326.4,272.8c-7.8,0-14.1-6.3-14.1-14.1c0-7.8,6.3-14.1,14.1-14.1s14.2,6.3,14.2,14.1C340.5,266.5,334.2,272.8,326.4,272.8z"/>
	</g>
</g>
<g>
	<g>
		<path class="st0" d="M185.2,229.5c-16.1,0-29.2,13.1-29.2,29.2s13.1,29.2,29.2,29.2s29.2-13.1,29.2-29.2
			C214.3,242.6,201.3,229.5,185.2,229.5z M185.2,272.8c-7.8,0-14.2-6.3-14.2-14.1s6.3-14.1,14.2-14.1s14.1,6.3,14.1,14.1
			C199.3,266.5,193,272.8,185.2,272.8z"/>
	</g>
</g>
<g>
	<g>
		<path class="st0" d="M380.1,184c-15.7-15-35.6-23.1-56.2-22.6c-4.1,0.1-7.4,3.5-7.4,7.7c0.1,4.1,3.4,7.4,7.5,7.4
			c18,0,33.3,6.6,45.7,18.5c3,2.9,7.7,2.8,10.6-0.2C383.2,191.6,383.1,186.9,380.1,184z"/>
	</g>
</g>
<g>
	<g>
		<path class="st0" d="M187.6,161.4c-20.5-0.4-40.5,7.6-56.2,22.6c-3,2.9-3.1,7.6-0.2,10.6c2.9,3,7.6,3.1,10.6,0.2
			c12.6-12,27.8-18.5,45.7-18.5c4.1,0,7.4-3.3,7.5-7.4C195.1,164.9,191.8,161.5,187.6,161.4z"/>
	</g>
</g>
<g>
	<g>
		<path class="st0" d="M409.7,51.6C327.5-10.2,216.9-17,127.9,34.5c-150.6,87-171.7,294.6-44.4,410.7c1.4,1.3,3.3,2,5.1,2
			c6.8,0,10.1-8.4,5.1-13.1c-120.3-109.6-99.5-305,41.8-386.5c83.7-48.5,187.8-42.2,265.2,16c3.3,2.5,8,1.8,10.5-1.5
			C413.7,58.8,413,54.1,409.7,51.6z"/>
	</g>
</g>
<g>
	<g>
		<path class="st0" d="M477.3,128.1c-11.1-19.3-24.7-37-40.4-52.7c-2.9-2.9-7.7-2.9-10.6,0s-2.9,7.7,0,10.6
			c14.7,14.8,27.5,31.5,38,49.7c66.5,115.2,27.1,262.4-88.1,328.9c-81.7,47.1-180.8,41.5-255.8-9.4c-3.4-2.3-8.1-1.4-10.4,2
			s-1.4,8.1,2,10.4c42.5,28.8,92.7,44.3,144.1,44.3C449.7,511.9,576.8,300.5,477.3,128.1z"/>
	</g>
</g>
</svg>
